<svg width="91" height="81" viewBox="0 0 91 81" fill="none" xmlns="http://www.w3.org/2000/svg">
<path d="M45.5 75.9375C37.6259 75.9375 29.9285 73.8591 23.3814 69.9652C16.8342 66.0713 11.7314 60.5367 8.71806 54.0614C5.70475 47.586 4.91633 40.4607 6.4525 33.5865C7.98868 26.7123 11.7805 20.3979 17.3483 15.4419C22.9162 10.4859 30.0101 7.1108 37.733 5.74344C45.4559 4.37607 53.4608 5.07785 60.7356 7.76003C68.0104 10.4422 74.2282 14.9843 78.6029 20.812C82.9776 26.6397 85.3125 33.4911 85.3125 40.5C85.3125 49.8986 81.118 58.9123 73.6517 65.5581C66.1854 72.2039 56.059 75.9375 45.5 75.9375ZM45.5 10.125C38.7507 10.125 32.153 11.9065 26.5412 15.2441C20.9294 18.5818 16.5555 23.3257 13.9726 28.876C11.3898 34.4263 10.714 40.5337 12.0307 46.4259C13.3474 52.3181 16.5975 57.7304 21.37 61.9784C26.1425 66.2264 32.223 69.1193 38.8426 70.2914C45.4622 71.4634 52.3236 70.8619 58.5591 68.5628C64.7946 66.2638 70.1242 62.3706 73.8739 57.3755C77.6236 52.3803 79.625 46.5076 79.625 40.5C79.625 32.4441 76.0297 24.7181 69.63 19.0216C63.2304 13.3252 54.5505 10.125 45.5 10.125Z" fill="#059335" fill-opacity="0.95"/>
<path d="M23.1258 70.395C29.7529 74.3365 37.5391 76.4375 45.5 76.4375C56.174 76.4375 66.4208 72.6638 73.9841 65.9316C81.5494 59.1977 85.8125 50.0513 85.8125 40.5C85.8125 33.3784 83.4397 26.4224 79.0028 20.5118C74.5666 14.6022 68.2676 10.0042 60.9086 7.2909C53.5497 4.57771 45.4549 3.86847 37.6458 5.25109C29.8367 6.63372 22.6566 10.0476 17.0159 15.0684C11.3746 20.0898 7.52494 26.4948 5.96454 33.4775C4.40397 40.4608 5.20563 47.6985 8.26474 54.2723C11.3234 60.845 16.4983 66.4532 23.1258 70.395ZM26.7968 15.6739C32.3286 12.3838 38.8375 10.625 45.5 10.625C54.4355 10.625 62.995 13.7851 69.2976 19.3951C75.5983 25.0035 79.125 32.5967 79.125 40.5C79.125 46.3948 77.1615 52.163 73.474 57.0753C69.7859 61.9884 64.5374 65.8258 58.3861 68.0937C52.2347 70.3617 45.4632 70.9558 38.9297 69.799C32.3963 68.6423 26.4021 65.7881 21.7024 61.6049C17.0034 57.4222 13.8112 52.1006 12.5187 46.3168C11.2264 40.5338 11.8889 34.5388 14.4259 29.087C16.9635 23.634 21.2653 18.9637 26.7968 15.6739Z" stroke="#059335" stroke-opacity="0.95"/>
<path d="M58.5528 55.6875L42.6562 41.5378V17.7188H48.3438V39.4369L62.5625 52.1184L58.5528 55.6875Z" fill="#059335" fill-opacity="0.95"/>
<path d="M58.2204 56.061L58.5528 56.3569L58.8852 56.061L62.8949 52.4919L63.3141 52.1188L62.8953 51.7453L48.8438 39.2128V17.7188V17.2188H48.3438H42.6562H42.1562V17.7188V41.5378V41.7621L42.3238 41.9113L58.2204 56.061Z" stroke="#059335" stroke-opacity="0.95"/>
</svg>
