<svg width="83" height="73" viewBox="0 0 83 73" fill="none" xmlns="http://www.w3.org/2000/svg">
<path d="M80.336 25.7363L55.623 22.4745L44.5756 2.13429C44.2739 1.57739 43.7775 1.12657 43.1643 0.852534C41.6264 0.163037 39.7576 0.737618 38.9887 2.13429L27.9413 22.4745L3.22832 25.7363C2.54698 25.8247 1.92405 26.1164 1.44711 26.5584C0.870526 27.0966 0.5528 27.8207 0.563751 28.5716C0.574701 29.3225 0.913432 30.0387 1.50551 30.5628L19.3857 46.3947L15.1614 68.7504C15.0624 69.2704 15.1257 69.8053 15.3443 70.2943C15.5629 70.7833 15.928 71.2069 16.3982 71.517C16.8684 71.8271 17.4249 72.0114 18.0045 72.049C18.5842 72.0865 19.1638 71.9758 19.6777 71.7294L41.7822 61.1747L63.8866 71.7294C64.4901 72.0211 65.1909 72.1183 65.8625 72.0122C67.5561 71.747 68.6949 70.2885 68.4029 68.7504L64.1786 46.3947L82.0588 30.5628C82.5455 30.1297 82.8667 29.5639 82.964 28.9451C83.2268 27.3982 82.0393 25.9662 80.336 25.7363ZM56.6547 44.1671L60.1685 62.7571L41.7822 53.9881L23.3958 62.7659L26.9096 44.176L12.037 31.0048L32.5939 28.291L41.7822 11.3806L50.9705 28.291L71.5273 31.0048L56.6547 44.1671Z" fill="#059335" fill-opacity="0.95"/>
</svg>
