<svg width="83" height="73" viewBox="0 0 83 73" fill="none" xmlns="http://www.w3.org/2000/svg">
<path d="M80.3355 25.7363L55.6225 22.4745L44.5751 2.13429C44.2734 1.57739 43.777 1.12657 43.1638 0.852534C41.6259 0.163037 39.7571 0.737618 38.9882 2.13429L27.9408 22.4745L3.22783 25.7363C2.5465 25.8247 1.92356 26.1164 1.44663 26.5584C0.870038 27.0966 0.552312 27.8207 0.563262 28.5716C0.574213 29.3225 0.912944 30.0387 1.50503 30.5628L19.3852 46.3947L15.1609 68.7504C15.0619 69.2704 15.1252 69.8053 15.3438 70.2943C15.5624 70.7833 15.9275 71.2069 16.3977 71.517C16.8679 71.8271 17.4244 72.0114 18.004 72.049C18.5837 72.0865 19.1633 71.9758 19.6772 71.7294L41.7817 61.1747L63.8861 71.7294C64.4896 72.0211 65.1904 72.1183 65.862 72.0122C67.5556 71.747 68.6944 70.2885 68.4024 68.7504L64.1781 46.3947L82.0583 30.5628C82.545 30.1297 82.8662 29.5639 82.9635 28.9451C83.2263 27.3982 82.0389 25.9662 80.3355 25.7363ZM56.6543 44.1671L60.168 62.7571L41.7817 53.9881L23.3954 62.7659L26.9091 44.176L12.0365 31.0048L32.5934 28.291L41.7817 11.3806L50.97 28.291L71.5268 31.0048L56.6543 44.1671Z" fill="#A41F1F"/>
</svg>
