<svg width="100" height="55" viewBox="0 0 100 55" fill="none" xmlns="http://www.w3.org/2000/svg">
<path d="M3 39.75V3H79.9091" stroke="#059335" stroke-opacity="0.95" stroke-width="6" stroke-linecap="round" stroke-linejoin="round"/>
<path d="M67.0908 15.25H94.4363C95.1162 15.25 95.7683 15.4436 96.249 15.7882C96.7298 16.1328 96.9999 16.6002 96.9999 17.0875V50.1625C96.9999 50.6498 96.7298 51.1172 96.249 51.4618C95.7683 51.8064 95.1162 52 94.4363 52H67.0908M67.0908 15.25V52M67.0908 15.25H49.9999M67.0908 52H49.9999M49.9999 15.25H22.6545C21.9745 15.25 21.3225 15.4436 20.8417 15.7882C20.3609 16.1328 20.0908 16.6002 20.0908 17.0875V50.1625C20.0908 50.6498 20.3609 51.1172 20.8417 51.4618C21.3225 51.8064 21.9745 52 22.6545 52H49.9999M49.9999 15.25V52" stroke="#059335" stroke-opacity="0.95" stroke-width="6" stroke-linecap="round" stroke-linejoin="round"/>
</svg>
