<svg width="91" height="81" viewBox="0 0 91 81" fill="none" xmlns="http://www.w3.org/2000/svg">
<path d="M45.5 75.9375C37.6259 75.9375 29.9285 73.8591 23.3814 69.9652C16.8342 66.0713 11.7314 60.5367 8.71806 54.0614C5.70475 47.586 4.91633 40.4607 6.4525 33.5865C7.98868 26.7123 11.7805 20.3979 17.3483 15.4419C22.9162 10.4859 30.0101 7.1108 37.733 5.74344C45.4559 4.37607 53.4608 5.07785 60.7356 7.76003C68.0104 10.4422 74.2283 14.9843 78.6029 20.812C82.9776 26.6397 85.3125 33.4911 85.3125 40.5C85.3125 49.8986 81.118 58.9123 73.6517 65.5581C66.1854 72.2039 56.059 75.9375 45.5 75.9375ZM45.5 10.125C38.7507 10.125 32.153 11.9065 26.5412 15.2441C20.9294 18.5818 16.5555 23.3257 13.9726 28.876C11.3898 34.4263 10.714 40.5337 12.0307 46.4259C13.3474 52.3181 16.5975 57.7304 21.37 61.9784C26.1425 66.2264 32.223 69.1193 38.8426 70.2914C45.4622 71.4634 52.3236 70.8619 58.5591 68.5628C64.7946 66.2638 70.1242 62.3706 73.8739 57.3755C77.6236 52.3803 79.625 46.5076 79.625 40.5C79.625 32.4441 76.0297 24.7181 69.63 19.0216C63.2304 13.3252 54.5505 10.125 45.5 10.125Z" fill="#A41F1F"/>
<path d="M58.5528 55.6875L42.6562 41.5378V17.7188H48.3438V39.4369L62.5625 52.1184L58.5528 55.6875Z" fill="#A41F1F"/>
</svg>
